<?xml version="1.0" encoding="UTF-8"?>
<!DOCTYPE svg PUBLIC "-//W3C//DTD SVG 1.1//EN" "http://www.w3.org/Graphics/SVG/1.1/DTD/svg11.dtd">
<!-- Creator: CorelDRAW 2021 (64-Bit) -->
<svg xmlns="http://www.w3.org/2000/svg" xml:space="preserve" width="34.7208mm" height="30.6262mm" version="1.1" style="shape-rendering:geometricPrecision; text-rendering:geometricPrecision; image-rendering:optimizeQuality; fill-rule:evenodd; clip-rule:evenodd"
viewBox="0 0 474.97 418.96"
 xmlns:xlink="http://www.w3.org/1999/xlink"
 xmlns:xodm="http://www.corel.com/coreldraw/odm/2003">
 <defs>
  <style type="text/css">
   <![CDATA[
    .fil0 {fill:white;fill-rule:nonzero}
   ]]>
  </style>
 </defs>
 <g id="Слой_x0020_1">
  <metadata id="CorelCorpID_0Corel-Layer"/>
  <path class="fil0" d="M352.98 285.18l61.22 -24.03 -11.44 -29.15c5.97,-4.67 11.44,-9.92 16.34,-15.67l28.68 12.52 26.34 -60.29 -28.7 -12.52c0.88,-7.48 1.02,-15.06 0.4,-22.6l29.16 -11.47 -23.99 -61.25 -29.22 11.48c-4.69,-6 -9.95,-11.46 -15.67,-16.34l12.53 -28.71 -60.25 -26.31 -12.54 28.71c-4.43,-0.52 -8.89,-0.78 -13.34,-0.78 -3.1,0 -6.18,0.13 -9.28,0.37l-11.42 -29.16 -61.18 23.98 11.37 29.19c-5.96,4.67 -11.42,9.92 -16.3,15.64l-28.68 -12.52 -26.31 60.28 28.67 12.51c-0.88,7.46 -1.02,15.06 -0.4,22.65l-29.15 11.44 24.01 61.25 29.15 -11.43c4.7,5.96 9.93,11.43 15.66,16.28l-12.52 28.68 60.27 26.34 12.53 -28.68c4.37,0.52 8.81,0.78 13.26,0.78 3.12,0 6.24,-0.13 9.37,-0.39l11.45 29.17zm63.41 -80l-2.19 2.72c-5.67,7.11 -12.29,13.45 -19.66,18.86l-2.83 2.08 10.64 27.14 -44.21 17.36 -10.66 -27.14 -3.48 0.38c-3.96,0.45 -7.94,0.68 -11.9,0.68 -5.17,0 -10.3,-0.39 -15.33,-1.14l-3.47 -0.53 -11.65 26.69 -43.54 -19.02 11.65 -26.69 -2.73 -2.18c-7.06,-5.62 -13.41,-12.23 -18.85,-19.63l-2.09 -2.82 -27.11 10.64 -17.34 -44.23 27.12 -10.65 -0.39 -3.48c-1.01,-9.17 -0.85,-18.33 0.49,-27.26l0.53 -3.47 -26.68 -11.65 19.01 -43.53 26.69 11.66 2.18 -2.75c5.65,-7.08 12.25,-13.42 19.61,-18.83l2.83 -2.08 -10.58 -27.16 44.17 -17.31 10.65 27.13 3.48 -0.4c3.9,-0.44 7.84,-0.66 11.77,-0.66 5.19,0 10.36,0.39 15.45,1.16l3.46 0.51 11.67 -26.7 43.5 19 -11.67 26.71 2.75 2.18c7.09,5.64 13.43,12.26 18.87,19.66l2.08 2.83 27.19 -10.68 17.31 44.24 -27.13 10.67 0.4 3.48c1.02,9.08 0.87,18.23 -0.48,27.2l-0.52 3.46 26.69 11.66 -19.02 43.54 -26.68 -11.65zm-84.12 22.22c33.79,0 64.36,-19.97 77.85,-50.89 9.06,-20.71 9.47,-43.75 1.19,-64.87 -8.29,-21.1 -24.28,-37.7 -45.01,-46.75 -10.78,-4.71 -22.15,-7.1 -33.84,-7.1 -33.79,0 -64.33,19.95 -77.82,50.84 -9.05,20.73 -9.48,43.78 -1.2,64.9 8.27,21.13 24.25,37.72 44.97,46.78 10.77,4.71 22.16,7.1 33.85,7.1zm0.2 -160.46c10.42,0 20.57,2.12 30.18,6.33 18.5,8.08 32.75,22.9 40.15,41.72 7.39,18.83 7.01,39.39 -1.06,57.87 -12.03,27.57 -39.31,45.39 -69.47,45.39 -10.42,0 -20.56,-2.12 -30.19,-6.33 -18.49,-8.06 -32.73,-22.88 -40.13,-41.72 -7.38,-18.85 -6.99,-39.43 1.08,-57.94 12.03,-27.53 39.27,-45.33 69.43,-45.33z"/>
  <path class="fil0" d="M118.69 418.96l44.53 -17.48 -8.31 -21.2c4.34,-3.4 8.32,-7.22 11.88,-11.4l20.86 9.11 19.16 -43.84 -20.88 -9.13c0.65,-5.43 0.74,-10.94 0.29,-16.43l21.21 -8.34 -17.45 -44.55 -21.25 8.34c-3.41,-4.35 -7.22,-8.34 -11.41,-11.88l9.11 -20.88 -43.82 -19.14 -9.11 20.88c-3.21,-0.37 -6.45,-0.56 -9.71,-0.56 -2.24,0 -4.5,0.08 -6.74,0.27l-8.31 -21.21 -44.5 17.45 8.27 21.22c-4.33,3.4 -8.31,7.21 -11.85,11.38l-20.87 -9.11 -19.14 43.85 20.86 9.09c-0.65,5.43 -0.75,10.95 -0.29,16.48l-21.21 8.33 17.46 44.55 21.2 -8.33c3.42,4.34 7.24,8.31 11.39,11.86l-9.1 20.87 43.85 19.14 9.11 -20.86c3.18,0.37 6.41,0.56 9.66,0.56 2.27,0 4.53,-0.09 6.81,-0.28l8.32 21.22zm46.13 -58.18l-1.59 1.98c-4.14,5.16 -8.95,9.78 -14.3,13.72l-2.07 1.51 7.75 19.74 -32.17 12.62 -7.75 -19.75 -2.54 0.29c-2.87,0.32 -5.75,0.49 -8.62,0.49 -3.77,0 -7.52,-0.28 -11.19,-0.84l-2.53 -0.37 -8.47 19.4 -31.66 -13.83 8.47 -19.4 -1.98 -1.59c-5.13,-4.09 -9.76,-8.9 -13.72,-14.28l-1.52 -2.05 -19.72 7.74 -12.61 -32.18 19.72 -7.73 -0.28 -2.54c-0.76,-6.67 -0.63,-13.33 0.35,-19.83l0.37 -2.53 -19.39 -8.47 13.82 -31.66 19.4 8.48 1.59 -1.99c4.11,-5.15 8.91,-9.76 14.26,-13.7l2.06 -1.5 -7.7 -19.77 32.13 -12.58 7.74 19.72 2.54 -0.28c2.85,-0.32 5.71,-0.48 8.57,-0.48 3.77,0 7.53,0.28 11.24,0.84l2.52 0.37 8.48 -19.43 31.64 13.81 -8.48 19.43 2.01 1.59c5.14,4.11 9.77,8.92 13.73,14.3l1.51 2.06 19.78 -7.77 12.59 32.17 -19.73 7.76 0.28 2.53c0.76,6.6 0.64,13.26 -0.34,19.79l-0.37 2.52 19.41 8.47 -13.83 31.66 -19.4 -8.46zm-61.19 16.15c24.58,0 46.81,-14.52 56.62,-37.01 6.59,-15.07 6.89,-31.82 0.86,-47.18 -6.03,-15.35 -17.65,-27.42 -32.72,-34.01 -7.84,-3.42 -16.12,-5.16 -24.61,-5.16 -24.58,0 -46.79,14.51 -56.59,36.96 -6.58,15.09 -6.9,31.85 -0.88,47.21 6.02,15.37 17.64,27.45 32.7,34.02 7.84,3.42 16.12,5.16 24.62,5.16zm0.15 -116.72c7.56,0 14.95,1.55 21.95,4.62 13.46,5.87 23.83,16.65 29.2,30.34 5.37,13.7 5.11,28.65 -0.76,42.1 -8.76,20.05 -28.6,33.02 -50.54,33.02 -7.57,0 -14.96,-1.55 -21.96,-4.6 -13.45,-5.87 -23.81,-16.65 -29.19,-30.36 -5.37,-13.71 -5.08,-28.67 0.79,-42.13 8.75,-20.03 28.57,-32.99 50.51,-32.99z"/>
 </g>
</svg>
