<?xml version="1.0" encoding="UTF-8"?>
<!DOCTYPE svg PUBLIC "-//W3C//DTD SVG 1.1//EN" "http://www.w3.org/Graphics/SVG/1.1/DTD/svg11.dtd">
<!-- Creator: CorelDRAW 2021 (64-Bit) -->
<svg xmlns="http://www.w3.org/2000/svg" xml:space="preserve" width="34.5527mm" height="32.8815mm" version="1.1" style="shape-rendering:geometricPrecision; text-rendering:geometricPrecision; image-rendering:optimizeQuality; fill-rule:evenodd; clip-rule:evenodd"
viewBox="0 0 644.71 613.52"
 xmlns:xlink="http://www.w3.org/1999/xlink"
 xmlns:xodm="http://www.corel.com/coreldraw/odm/2003">
 <defs>
  <style type="text/css">
   <![CDATA[
    .fil0 {fill:white;fill-rule:nonzero}
   ]]>
  </style>
 </defs>
 <g id="Слой_x0020_1">
  <metadata id="CorelCorpID_0Corel-Layer"/>
  <path class="fil0" d="M522.21 302.88c3.8,0 7.55,-0.08 11.3,-0.24 38.44,-1.53 70.49,-10.54 107.17,-30.16l4.02 -2.16 -0.86 -4.49c-1.8,-9.48 -2.93,-18.4 -3.83,-25.56 -0.65,-5.05 -1.22,-9.43 -1.84,-12.92 -5.15,-28.49 -39.67,-36.81 -64.88,-42.88 -7.81,-1.88 -18.51,-4.45 -20.42,-6.43 -1.15,-1.55 -2.85,-8.89 -3.09,-15.55 10,-7.3 18,-18.12 22.83,-30.92 4.19,-1.55 9.7,-6.12 12.33,-19.21 1.26,-6.32 0.62,-11.44 -1.93,-15.24l-1.88 -2.18c1.96,-44.13 -25.73,-69.26 -26.93,-70.33l-3.22 -2.87 -3.81 2.01c-1.2,0.63 -2.38,0.82 -3.91,0.82 -0.96,0 -2.07,-0.08 -3.4,-0.16 -2.16,-0.14 -4.73,-0.3 -8,-0.3 -9.66,0 -21.13,1.45 -35.09,4.42 -37.27,7.95 -36.3,49.28 -34.91,63.07l-0.21 1.74c-2.38,2.16 -4.72,6.03 -4.72,12.94 0,9.23 4.35,15.25 7.07,18.12 3.45,12.64 9.98,24.04 18.64,32.5 -0.82,7.69 -4.02,19.89 -5.24,23.15 -1.99,1.47 -9.08,3.79 -14.81,5.65 -19.82,6.47 -49.77,16.22 -56.19,41.18 -2.65,10.31 -4.52,25.22 -5.88,46.91l-0.27 4.46 4.14 1.69c33.82,13.73 57.25,19.11 96.41,22.08 7.21,0.56 14.43,0.84 21.42,0.84zm26.27 -266.4c6.46,7.06 22.71,28.34 20.03,61.26l-0.45 5.58 4.75 0.89c0.25,0.57 0.63,2.28 -0.04,5.7 -1.49,7.32 -3.74,9.72 -4.42,9.98 -2.16,0.28 -3.85,1.69 -5.08,2.86l-1.08 1.05 -0.49 1.42c-4.24,12.39 -11.88,22.59 -21.49,28.75l-2.74 1.76 -0.11 3.25c-0.27,6.77 1.27,21.76 6.24,27.34 4.33,4.83 13.76,7.1 26.79,10.25 21.88,5.27 51.85,12.48 55.55,33 0.61,3.33 1.13,7.49 1.74,12.29 0.78,6.19 1.74,13.67 3.15,21.77 -33.27,17.21 -62.76,25.21 -97.82,26.6 -3.5,0.15 -7.06,0.22 -10.65,0.22 -6.76,0 -13.65,-0.27 -20.62,-0.81 -36.53,-2.77 -57.93,-7.41 -88.5,-19.52 1.27,-18.45 2.93,-31.28 5.22,-40.1 4.72,-18.34 29.74,-26.49 47.99,-32.46 11.67,-3.8 18.71,-6.09 21.6,-10.94 2.13,-3.98 7,-22.83 7.23,-32.05l0.07 -2.91 -2.18 -1.92c-8.33,-7.36 -14.57,-18.04 -17.55,-30.06l-0.48 -1.94 -1.5 -1.29c-0.44,-0.39 -4.26,-3.83 -4.26,-10.14 0,-2.41 0.46,-3.53 0.64,-3.74l3.91 -1.33 -0.17 -3.84c0.13,-1.62 0.32,-3.22 0.54,-4.81l0.11 -0.78 -0.1 -0.78c-1.46,-13.2 -1.96,-44.55 25.08,-50.32 13.07,-2.79 23.7,-4.16 32.48,-4.16 2.95,0 5.29,0.16 7.25,0.27 1.59,0.1 2.98,0.16 4.24,0.16 1.91,0 3.54,-0.14 5.13,-0.51zm-82.28 104.93l-27.2 -47.89c-1.52,-2.7 -38.26,-65.77 -118.94,-65.77 -22.61,0 -46.64,5.1 -71.47,15.18l-9.12 -42.92 -39.79 98.85 97.99 8.15 -25.42 -23.69c14.25,-5.29 43.91,-14.64 75.59,-14.64 34.35,0 61.66,10.8 81.16,32.09l37.18 40.64zm-118.34 -85.16c-46.72,0 -87.84,18.5 -89.57,19.29l-8.46 3.86 13.11 12.23 -45.41 -3.77 18.26 -45.36 3.8 17.86 7 -3.07c25.75,-11.35 50.47,-17.11 73.48,-17.11 31.24,0 55.39,10.63 72.86,22.9 -13.54,-4.55 -28.59,-6.83 -45.06,-6.83zm-225.86 239.99c3.78,0 7.57,-0.07 11.31,-0.23 38.46,-1.54 70.49,-10.56 107.15,-30.17l4.03 -2.15 -0.85 -4.48c-1.81,-9.48 -2.93,-18.4 -3.85,-25.56 -0.64,-5.05 -1.21,-9.43 -1.83,-12.91 -5.14,-28.5 -39.66,-36.82 -64.87,-42.89 -7.8,-1.88 -18.5,-4.47 -20.43,-6.43 -1.15,-1.56 -2.85,-8.89 -3.1,-15.55 10.02,-7.32 18.02,-18.12 22.86,-30.91 4.18,-1.55 9.67,-6.11 12.32,-19.21 1.27,-6.33 0.64,-11.44 -1.93,-15.22l-1.88 -2.21c1.97,-44.1 -25.72,-69.24 -26.93,-70.32l-3.23 -2.87 -3.8 2.01c-1.21,0.63 -2.38,0.81 -3.91,0.81 -0.96,0 -2.05,-0.07 -3.39,-0.14 -2.17,-0.14 -4.75,-0.3 -8.01,-0.3 -9.67,0 -21.15,1.45 -35.08,4.42 -37.27,7.95 -36.32,49.28 -34.91,63.07l-0.23 1.74c-2.4,2.16 -4.72,6.03 -4.72,12.94 0,9.21 4.36,15.25 7.07,18.12 3.46,12.66 9.99,24.04 18.65,32.5 -0.84,7.69 -4.03,19.88 -5.26,23.15 -2,1.49 -9.07,3.8 -14.81,5.67 -19.81,6.45 -49.75,16.22 -56.17,41.16 -2.65,10.29 -4.52,25.19 -5.9,46.89l-0.28 4.47 4.15 1.7c31.51,12.81 53.99,18.34 88.54,21.42 1.54,0.14 3.1,0.27 4.69,0.4 1.05,0.08 2.11,0.17 3.18,0.26 7.23,0.55 14.45,0.84 21.44,0.84zm26.25 -266.39c6.48,7.06 22.72,28.33 20.04,61.27l-0.48 5.57 4.75 0.89c0.28,0.57 0.65,2.28 -0.04,5.7 -1.46,7.33 -3.71,9.72 -4.41,9.99 -2.14,0.27 -3.83,1.66 -5.06,2.82l-1.09 1.05 -0.49 1.45c-4.24,12.37 -11.86,22.59 -21.49,28.75l-2.73 1.74 -0.13 3.24c-0.26,6.79 1.29,21.79 6.26,27.36 4.32,4.83 13.74,7.12 26.78,10.25 21.89,5.27 51.86,12.5 55.55,33 0.6,3.33 1.12,7.49 1.74,12.29 0.78,6.19 1.73,13.65 3.15,21.76 -33.24,17.22 -62.74,25.22 -97.8,26.61 -3.53,0.17 -7.09,0.24 -10.68,0.24 -6.55,0 -13.18,-0.26 -19.91,-0.77 -0.23,-0.01 -0.45,-0.04 -0.68,-0.06 -0.24,-0.01 -0.47,-0.03 -0.7,-0.04 -36.1,-2.78 -57.44,-7.44 -87.82,-19.49 1.26,-18.46 2.94,-31.27 5.23,-40.09 4.72,-18.34 29.73,-26.49 47.98,-32.44 11.68,-3.8 18.71,-6.1 21.62,-10.94 2.13,-4 7,-22.85 7.21,-32.08l0.06 -2.89 -2.17 -1.92c-8.34,-7.36 -14.56,-18.03 -17.53,-30.06l-0.48 -1.94 -1.53 -1.29c-0.43,-0.37 -4.25,-3.83 -4.25,-10.14 0,-2.88 0.63,-3.74 0.65,-3.76l3.89 -1.33 -0.15 -3.83c0.13,-1.63 0.31,-3.22 0.54,-4.8l0.12 -0.78 -0.09 -0.76c-1.46,-13.21 -1.97,-44.57 25.06,-50.33 13.07,-2.79 23.7,-4.14 32.49,-4.14 2.96,0 5.29,0.13 7.24,0.26 1.59,0.1 2.98,0.17 4.25,0.17 1.91,0 3.53,-0.14 5.12,-0.52zm-72.52 513.89l106.32 -7.26 -35.36 -91.75 -10.23 33.18c-20.72,-19.94 -78.57,-83.42 -52.63,-148.67l13.55 -34.09c-1.59,-0.13 -3.15,-0.25 -4.69,-0.4l-19.76 28.66c-0.69,1 -66.59,99.48 37.48,193.42l-34.67 26.9zm72.26 -61.05l16.39 42.52 -48.79 3.33 14.41 -11.2 -5.81 -4.95c-58.68,-49.92 -64.93,-100.38 -58.82,-135.47 7.28,64.06 66.98,114.35 70.16,116.98l7.17 5.93 5.29 -17.15zm-45.8 -199.63l1.96 -4.93 -3.33 4.83c0.23,0.01 0.46,0.03 0.7,0.04 0.23,0.01 0.45,0.04 0.68,0.06zm196.61 330.48c3.79,0 7.57,-0.07 11.29,-0.24 38.46,-1.53 70.52,-10.56 107.16,-30.16l4.03 -2.15 -0.85 -4.49c-1.82,-9.52 -2.95,-18.43 -3.87,-25.6 -0.43,-3.34 -0.81,-6.39 -1.21,-9.1 -0.2,-1.35 -0.4,-2.61 -0.61,-3.79 -0.04,-0.24 -0.09,-0.5 -0.14,-0.74 -5.61,-27.89 -39.74,-36.12 -64.74,-42.14 -7.81,-1.87 -18.51,-4.45 -20.42,-6.44 -1.16,-1.56 -2.86,-8.89 -3.09,-15.53 10,-7.31 18,-18.13 22.83,-30.93 4.24,-1.56 9.7,-6.15 12.32,-19.19 1.27,-6.32 0.62,-11.44 -1.92,-15.24l-1.88 -2.19c1.96,-44.11 -25.73,-69.26 -26.94,-70.32l-3.2 -2.86 -3.81 2.01c-1.21,0.62 -2.38,0.81 -3.91,0.81 -0.96,0 -2.06,-0.07 -3.4,-0.16 -2.18,-0.13 -4.75,-0.29 -8.01,-0.29 -9.67,0 -21.15,1.45 -35.07,4.41 -37.29,7.96 -36.33,49.27 -34.91,63.06l-0.23 1.76c-2.38,2.16 -4.72,6.02 -4.72,12.94 0,9.24 4.48,15.34 7.06,18.11 3.46,12.66 9.99,24.05 18.66,32.52 -0.82,7.68 -4.02,19.86 -5.26,23.15 -1.99,1.47 -9.04,3.79 -14.79,5.64 -19.81,6.47 -49.77,16.22 -56.2,41.18 -2.66,10.35 -4.54,25.26 -5.88,46.91l-0.29 4.47 4.16 1.69c33.84,13.76 57.26,19.12 96.41,22.07 7.21,0.56 14.41,0.85 21.43,0.85zm104.29 -69.67c0.38,2.55 0.74,5.43 1.13,8.59 0.79,6.2 1.74,13.68 3.16,21.81 -33.24,17.21 -62.72,25.2 -97.82,26.61 -3.53,0.16 -7.09,0.24 -10.66,0.24 -6.77,0 -13.64,-0.29 -20.61,-0.82 -36.51,-2.77 -57.92,-7.41 -88.52,-19.53 1.27,-18.43 2.95,-31.23 5.23,-40.12 4.72,-18.34 29.74,-26.49 48.01,-32.44 11.65,-3.79 18.68,-6.08 21.59,-10.91 2.14,-4.03 7,-22.89 7.21,-32.08l0.07 -2.9 -2.17 -1.91c-8.33,-7.34 -14.57,-18.03 -17.56,-30.06l-0.47 -1.94 -1.55 -1.3c-0.42,-0.37 -4.21,-3.76 -4.21,-10.12 0,-2.42 0.46,-3.53 0.63,-3.74l3.9 -1.33 -0.14 -3.84c0.11,-1.6 0.3,-3.19 0.53,-4.78l0.11 -0.79 -0.08 -0.8c-1.47,-13.21 -2,-44.53 25.04,-50.32 13.07,-2.78 23.69,-4.14 32.49,-4.14 2.93,0 5.27,0.16 7.25,0.27 1.59,0.1 2.98,0.16 4.25,0.16 1.91,0 3.55,-0.14 5.13,-0.51 6.47,7.07 22.72,28.34 20.01,61.26l-0.45 5.6 4.74 0.88c0.27,0.57 0.65,2.3 -0.04,5.69 -1.48,7.31 -3.73,9.72 -4.41,9.99 -2.07,0.21 -3.81,1.64 -5.06,2.84l-1.09 1.05 -0.5 1.43c-4.22,12.39 -11.85,22.59 -21.49,28.76l-2.72 1.74 -0.13 3.23c-0.28,6.79 1.27,21.77 6.24,27.36 4.34,4.85 13.75,7.11 26.79,10.25 21.88,5.27 51.85,12.49 55.55,33 0.11,0.62 0.23,1.27 0.34,1.94 0.08,0.55 0.17,1.13 0.25,1.71zm-7.45 1.28l7.45 -1.28c-0.09,-0.58 -0.17,-1.16 -0.25,-1.71l-7.2 2.99zm19.72 -3.36l34.47 -5.87c1.21,-0.2 117.69,-21.67 112.43,-161.77l43.47 6.11 -79.4 -71.12 -41.03 89.33 30.9 -15.79c0.16,28.76 -4.96,114.46 -69.79,141.39l-31.79 13.21c0.06,0.24 0.1,0.5 0.14,0.74 0.21,1.17 0.41,2.43 0.61,3.79zm133.59 -182.07l0.51 7.64c5.13,76.47 -26.46,116.16 -55.79,136.37 40.52,-49.92 34.94,-127.45 34.63,-131.56l-0.75 -9.27 -15.98 8.17 19.02 -41.42 36.41 32.63 -18.06 -2.55z"/>
 </g>
</svg>
