<?xml version="1.0" encoding="UTF-8"?>
<!DOCTYPE svg PUBLIC "-//W3C//DTD SVG 1.1//EN" "http://www.w3.org/Graphics/SVG/1.1/DTD/svg11.dtd">
<!-- Creator: CorelDRAW 2021 (64-Bit) -->
<svg xmlns="http://www.w3.org/2000/svg" xml:space="preserve" width="27.7727mm" height="30.9884mm" version="1.1" style="shape-rendering:geometricPrecision; text-rendering:geometricPrecision; image-rendering:optimizeQuality; fill-rule:evenodd; clip-rule:evenodd"
viewBox="0 0 824.87 920.38"
 xmlns:xlink="http://www.w3.org/1999/xlink"
 xmlns:xodm="http://www.corel.com/coreldraw/odm/2003">
 <defs>
  <style type="text/css">
   <![CDATA[
    .fil0 {fill:white;fill-rule:nonzero}
   ]]>
  </style>
 </defs>
 <g id="Слой_x0020_1">
  <metadata id="CorelCorpID_0Corel-Layer"/>
  <path class="fil0" d="M423.75 632.99c9.89,0 17.97,-4.89 21.1,-12.72l18.93 -47.07c27.05,-2.95 48.19,-25.95 48.19,-53.79 0,-12.62 -4.54,-24.85 -12.68,-34.52l62.79 -156.13c1.92,-4.72 1.8,-10.11 -0.31,-15.14 -2.85,-6.66 -8.92,-12.25 -16.65,-15.39 -3.88,-1.56 -7.92,-2.3 -11.8,-2.3 -9.68,0 -18.43,4.61 -21.66,12.5l-63.47 157.9c-25.4,4.55 -44.41,26.62 -44.41,53.09 0,11.46 3.61,22.47 10.32,31.68l-19.7 48.94c-4.56,11.4 2.91,24.79 17.01,30.51 4.02,1.62 8.26,2.46 12.34,2.46zm32.52 -81.61l-7.43 0 -23.94 59.53c-0.3,0.04 -0.72,0.09 -1.26,0.09 -0.94,0 -2.26,-0.16 -4.02,-0.86 -2.35,-0.94 -3.75,-2.28 -4.31,-3.11l24.28 -60.38 -4.9 -5.12c-5.75,-6.03 -8.93,-13.88 -8.93,-22.11 0,-17.13 13.47,-31.16 30.69,-31.93l7.06 -0.32 68.08 -169.31c0.29,-0.04 0.72,-0.11 1.26,-0.11 0.95,0 2.28,0.18 4.02,0.9 2.37,0.93 3.75,2.26 4.35,3.07l-67.87 168.73 5.78 5.14c6.97,6.25 10.83,14.71 10.83,23.83 0,17.71 -14.42,32.13 -32.13,32.13l-1.55 -0.16zm-11.46 337.13c20.56,-4.78 41.83,-7.24 63.46,-7.24 6.39,0 12.75,0.22 19.06,0.65 107.27,-20.92 198.01,-88.58 250.16,-180.84l-2.35 -2.22c-4.52,-4.28 -4.74,-11.39 -0.48,-15.95 7.81,-8.26 15.12,-15.43 22.34,-21.9 17.97,-43.32 27.87,-90.8 27.87,-140.5 0,-171.25 -119.45,-320.66 -285.35,-358.75 -1.96,-21.01 -17.44,-38.13 -37.63,-42.53l0.16 -9.34 12.09 0.2c30.25,0 54.49,-23.9 54.96,-53.23 0.23,-14.49 -5.21,-28.16 -15.27,-38.56 -10.09,-10.35 -23.6,-16.2 -38.04,-16.4l-118.63 -1.91c-30.23,0 -54.51,23.89 -54.99,53.27 -0.36,29.85 23.51,54.51 53.3,54.98l15.05 0.23 -0.18 10.56c-20.82,4.1 -36.86,21.71 -38.62,43.25 -164.58,38.96 -283.08,188.13 -283.08,358.23 0,12.05 0.59,23.98 1.72,35.77 6.77,-4.37 13.81,-8.37 21.1,-11.94 -0.54,-7.87 -0.81,-15.84 -0.81,-23.83 0,-162.86 115.52,-305.3 274.68,-338.71l10.02 -2.12 -1.39 -10.13 -0.37 -3.32c0,-14.4 11.69,-26.1 26.08,-26.1l12.33 0 0.9 -53.32 -37.07 -0.56c-17.67,-0.27 -31.87,-14.94 -31.62,-32.67 0.27,-17.42 14.69,-31.59 32.18,-31.59l119.08 1.92c8.6,0.14 16.61,3.59 22.59,9.75 5.97,6.16 9.18,14.28 9.04,22.88 -0.25,17.4 -14.62,31.57 -32.04,31.57l-34.66 -0.54 -0.81 52.57 11.17 0c15.28,0 27.01,11.71 27.01,26.1l-0.2 1.76 -1.38 10.2 9.95 3.16c160.36,32.58 276.76,175.22 276.76,339.16 0,190.88 -155.28,346.18 -346.1,346.18 -37.41,0 -73.46,-5.95 -107.24,-16.99 -5.19,6.18 -10.79,12.04 -16.67,17.53 35.15,12.61 72.78,20.01 111.93,21.27zm332.69 -187.43c7.29,-12.91 13.81,-26.26 19.51,-40.07 -7.21,6.47 -14.52,13.65 -22.34,21.9 -4.27,4.56 -4.04,11.67 0.48,15.95l2.35 2.22zm-320.71 187.61c24.12,0 47.72,-2.33 70.55,-6.77 -6.31,-0.43 -12.68,-0.65 -19.06,-0.65 -21.64,0 -42.91,2.46 -63.46,7.24 3.97,0.11 7.96,0.18 11.98,0.18zm0 -60.96c169.36,0 307.15,-137.84 307.15,-307.22 0,-169.38 -137.79,-307.17 -307.15,-307.17 -169.4,0 -307.24,137.79 -307.24,307.17 0,3.27 0.07,6.57 0.16,9.82 7.15,-1.79 14.46,-3.2 21.89,-4.19 -0.02,-1.87 -0.04,-3.75 -0.04,-5.62 0,-157.24 127.95,-285.15 285.24,-285.15 157.22,0 285.15,127.91 285.15,285.15 0,157.24 -127.93,285.22 -285.15,285.22 -25.9,0 -50.99,-3.47 -74.84,-9.97 -2.79,6.95 -5.93,13.67 -9.45,20.22 26.79,7.65 55.08,11.76 84.3,11.76zm22.79 -687.6l0 0zm-22.83 177.64c6.07,0 10.99,-4.92 10.99,-10.99l0 -40.77c0,-6.07 -4.92,-10.99 -10.99,-10.99 -6.09,0 -11.01,4.92 -11.01,10.99l0 40.77c0,6.07 4.92,10.99 11.01,10.99zm0 467.59c6.07,0 10.99,-4.94 10.99,-11.01l0 -40.77c0,-6.07 -4.92,-10.99 -10.99,-10.99 -6.09,0 -11.01,4.92 -11.01,10.99l0 40.77c0,6.07 4.92,11.01 11.01,11.01zm213.4 -254.21l40.77 0c6.07,0 10.99,-4.92 10.99,-10.99 0,-6.07 -4.92,-11.01 -10.99,-11.01l-40.77 0c-6.05,0 -10.99,4.95 -10.99,11.01 0,6.07 4.94,10.99 10.99,10.99zm-423.1 -0.61c4.27,-1.54 7.31,-5.6 7.31,-10.38 0,-6.07 -4.92,-11.01 -11.01,-11.01l-40.75 0c-6.09,0 -10.99,4.95 -10.99,11.01 0,1.54 0.29,2.98 0.86,4.31 1.85,-0.05 3.7,-0.09 5.58,-0.09 16.9,0 33.32,2.14 49,6.16zm389.41 180.34c2.79,0 5.62,-1.08 7.78,-3.22 4.29,-4.29 4.29,-11.26 0,-15.55l-28.81 -28.81c-2.17,-2.14 -4.96,-3.22 -7.78,-3.22 -2.82,0 -5.64,1.08 -7.78,3.22 -4.29,4.29 -4.29,11.26 0,15.55l28.83 28.81c2.12,2.14 4.95,3.22 7.76,3.22zm-330.59 -330.59c2.82,0 5.61,-1.08 7.78,-3.23 4.29,-4.31 4.29,-11.26 0,-15.55l-28.86 -28.83c-2.14,-2.15 -4.96,-3.23 -7.76,-3.23 -2.82,0 -5.64,1.08 -7.78,3.23 -4.28,4.29 -4.28,11.26 0,15.54l28.84 28.84c2.14,2.14 4.96,3.23 7.78,3.23zm301.78 -0.04c2.82,0 5.64,-1.06 7.78,-3.2l28.81 -28.81c4.29,-4.29 4.29,-11.26 0,-15.54 -2.14,-2.15 -4.96,-3.23 -7.78,-3.23 -2.8,0 -5.62,1.08 -7.76,3.23l-28.83 28.79c-4.29,4.31 -4.29,11.26 0,15.57 2.16,2.14 4.98,3.2 7.78,3.2zm-409.6 540.13c52.03,0 99.45,-20.17 134.83,-53.13 5.89,-5.49 11.48,-11.35 16.67,-17.53 8.75,-10.41 16.45,-21.71 22.94,-33.73 3.53,-6.54 6.66,-13.27 9.45,-20.22 9.08,-22.68 14.08,-47.45 14.08,-73.33 0,-92.3 -63.45,-170.03 -148.98,-191.89 -15.68,-4.02 -32.11,-6.16 -49,-6.16 -1.87,0 -3.73,0.04 -5.58,0.09 -7.04,0.18 -14.01,0.74 -20.87,1.67 -7.43,0.99 -14.73,2.41 -21.89,4.19 -13.33,3.37 -26.15,8.08 -38.26,14.01 -7.29,3.56 -14.33,7.56 -21.1,11.94 -54.33,35.36 -90.34,96.61 -90.34,166.15 0,109.14 88.83,197.95 198.04,197.95zm0 -374.01c97.04,0 175.98,78.97 175.98,176.05 0,97 -78.94,175.95 -175.98,175.95 -97.07,0 -176.04,-78.95 -176.04,-175.95 0,-97.09 78.97,-176.05 176.04,-176.05zm-2.71 259.25c4.83,0 9.52,-1.82 13.24,-5.1l97.86 -86.28c3.86,-3.45 6,-8.42 5.93,-13.67 -0.07,-4.78 -1.9,-9.45 -5.16,-13.09l-14.08 -15.98c-3.91,-4.42 -9.57,-6.7 -15.05,-6.7 -4.2,0 -8.33,1.35 -11.49,4.08l-69.08 60.92 -91.63 -103.94c-3.5,-3.86 -8.55,-5.82 -13.67,-5.82 -4.67,0 -9.41,1.62 -13.11,4.83l-14.28 12.61c-4.02,3.54 -6.52,8.58 -6.81,13.79 -0.29,4.87 1.3,9.5 4.49,13.01l119.29 135.31c3.32,3.82 8.28,6.03 13.56,6.03zm82.94 -117.71l10.81 12.3 -93.16 82.15 -114.66 -130.03 10.44 -9.25 103.86 117.78 82.72 -72.94z"/>
 </g>
</svg>
