<?xml version="1.0" encoding="UTF-8"?>
<!DOCTYPE svg PUBLIC "-//W3C//DTD SVG 1.1//EN" "http://www.w3.org/Graphics/SVG/1.1/DTD/svg11.dtd">
<!-- Creator: CorelDRAW 2021 (64-Bit) -->
<svg xmlns="http://www.w3.org/2000/svg" xml:space="preserve" width="21.2972mm" height="25.5325mm" version="1.1" style="shape-rendering:geometricPrecision; text-rendering:geometricPrecision; image-rendering:optimizeQuality; fill-rule:evenodd; clip-rule:evenodd"
viewBox="0 0 4293.63 5147.49"
 xmlns:xlink="http://www.w3.org/1999/xlink"
 xmlns:xodm="http://www.corel.com/coreldraw/odm/2003">
 <defs>
  <style type="text/css">
   <![CDATA[
    .fil0 {fill:white;fill-rule:nonzero}
   ]]>
  </style>
 </defs>
 <g id="Слой_x0020_1">
  <metadata id="CorelCorpID_0Corel-Layer"/>
  <path class="fil0" d="M2873.02 5147.49l998.55 0 0 -2235.28 -998.55 0 0 2235.28zm882.89 -2119.66l0 2004.02 -767.29 0 0 -2004.02 767.29 0zm-3656.84 2066.36l998.41 0 0 -3108.72 -998.41 0 0 3108.72zm882.81 -2993.06l0 2877.58 -767.17 0 0 -2877.58 767.17 0zm518.87 3041.46l998.39 0 0 -2554.16 -998.39 0 0 2554.16zm882.77 -2438.54l0 2323.06 -767.15 0 0 -2323.06 767.15 0zm272.77 -336.02c692.11,0 1179.11,-289.75 1199.47,-301.98l437.87 -264.65 -485.79 160.32c-177.21,58.34 -360.21,88.08 -544.31,88.08 -1075.75,0 -1964.04,-1003.15 -2187.48,-1278.52l540.02 -131.89 -1402.75 -639.39 -213.32 1654.66 447.2 -509.54c783.7,1008.97 1631.39,1222.92 2209.09,1222.92zm641.09 -203.06c-179.03,48.85 -397.57,87.44 -641.09,87.44 -817.39,0 -1544.1,-414.9 -2159.78,-1233.2l-42.72 -56.79 -290.51 331.12 144.69 -1123.41 956.62 436.03 -387.16 94.65 51.15 69.86c41.63,56.95 1036.53,1394.61 2334.95,1394.61l33.85 -0.3z"/>
 </g>
</svg>
