<?xml version="1.0" encoding="UTF-8"?>
<!DOCTYPE svg PUBLIC "-//W3C//DTD SVG 1.1//EN" "http://www.w3.org/Graphics/SVG/1.1/DTD/svg11.dtd">
<!-- Creator: CorelDRAW 2021 (64-Bit) -->
<svg xmlns="http://www.w3.org/2000/svg" xml:space="preserve" width="35.7471mm" height="33.9465mm" version="1.1" style="shape-rendering:geometricPrecision; text-rendering:geometricPrecision; image-rendering:optimizeQuality; fill-rule:evenodd; clip-rule:evenodd"
viewBox="0 0 1187.51 1127.69"
 xmlns:xlink="http://www.w3.org/1999/xlink"
 xmlns:xodm="http://www.corel.com/coreldraw/odm/2003">
 <defs>
  <style type="text/css">
   <![CDATA[
    .fil0 {fill:white;fill-rule:nonzero}
   ]]>
  </style>
 </defs>
 <g id="Слой_x0020_1">
  <metadata id="CorelCorpID_0Corel-Layer"/>
  <path class="fil0" d="M489.91 985.61l3 0c2.98,0 5.91,-0.02 8.89,-0.07 -3.39,-4.11 -6.64,-8.28 -9.84,-12.54l-14.59 -0.03 0.05 -12.85c-18.22,-0.58 -36.26,-2.2 -54.05,-4.84 0.45,0.76 0.96,1.54 1.44,2.3l-21.3 13.53c-4.69,-7.37 -9.24,-14.71 -13.65,-22.03 -45.18,-10.09 -88.35,-26.82 -128.4,-49.71 2.45,4.01 4.95,8 7.52,12.03l-17.69 11.26c72.05,40.62 153.63,62.48 238.63,62.96zm-246.6 -67.55c-10.37,-16.63 -19.96,-33.11 -28.89,-49.47 -19.03,-14.18 -37.13,-29.93 -54.13,-47.11 -14.33,-14.51 -27.61,-29.81 -39.8,-45.75 -6.31,3.81 -12.62,7.72 -18.98,11.76l-13.55 -21.32c5.93,-3.76 11.81,-7.42 17.72,-10.98 -50.24,-73.79 -78.16,-160.3 -80.28,-251.07l-14.23 -0.05 0.08 -25.26 14.23 0.03c2.72,-91.66 32.07,-176.89 80.55,-248.1 -6.01,-3.63 -12.04,-7.37 -18.07,-11.21l13.55 -21.3c6.47,4.11 12.9,8.08 19.34,11.94 32.07,-42.04 71.06,-78.54 115.28,-107.73 16.5,-25.42 28.13,-39.43 28.74,-40.13l16.27 13.83c37.33,-19.08 77.52,-33.29 119.74,-41.77 11.28,-16.85 19.13,-26.87 21.02,-29.24 -236.89,34.42 -420.45,238.7 -421.89,484.78 -0.76,131.66 49.79,255.72 142.3,349.32 30.56,30.94 64.5,57.33 100.99,78.84zm733.08 -521.23c-18.47,-94.08 -64.09,-180.72 -133.01,-250.44 -92.49,-93.6 -215.97,-145.61 -347.63,-146.39l-2.95 0c-23.75,0 -47.12,1.69 -70,4.99l19 15.67c-0.25,0.3 -2.47,3.06 -6.18,8.08 14.64,-1.79 29.5,-2.93 44.54,-3.33l0.03 -12.82 25.26 0.05 -0.05 12.77c13.91,0.35 27.71,1.34 41.39,2.9 -3.53,-4.77 -5.61,-7.34 -5.88,-7.65l19.51 -16.07c0.53,0.65 8.58,10.64 20.87,28.97 42.57,8.1 83.5,22.02 121.89,41.38l14.9 -12.64c0.55,0.68 10.95,13.2 26.02,35.96 29.14,18.65 56.43,40.65 81.34,65.89 13.48,13.6 25.99,27.91 37.55,42.82 9.09,-6.25 14.01,-10.17 14.41,-10.49l15.95 19.58c-0.4,0.33 -5.7,4.54 -15.44,11.26 32.9,47.49 56.48,100.36 69.8,156.28 9.77,4.01 19.36,8.43 28.72,13.22zm-484.43 576.17c-5.05,-6.72 -9.9,-13.61 -14.51,-20.65l-0.03 7.77 -0.05 12.85 14.59 0.03zm-13.27 -444.81c5.14,-7.78 10.59,-15.36 16.27,-22.74l-16.22 -0.05 -0.05 22.79zm25.39 -47.97l0.37 -135.29c-3.85,0.08 -7.75,0.1 -11.65,0.1 -4.49,0 -9.03,-0.05 -13.58,-0.12l-0.41 135.24 25.26 0.08zm-10.98 -160.53c3.83,0 7.65,-0.02 11.43,-0.1l0.86 -294.17 0.05 -12.77 -25.26 -0.05 -0.03 12.82 -0.86 294.12c4.62,0.1 9.21,0.15 13.81,0.15zm1.87 185.76c6.74,-8.7 13.81,-17.1 21.22,-25.18l-12.11 -0.05 -25.26 -0.08 -194.65 -0.56c-0.22,8.33 -0.32,16.78 -0.27,25.26l194.85 0.55 16.22 0.05zm-236.26 -0.68c-0.05,-8.51 0.05,-16.91 0.25,-25.26l-116.61 -0.33c-0.27,8.33 -0.43,16.73 -0.38,25.26l116.75 0.33zm-142.13 -0.4c-0.03,-8.5 0.1,-16.96 0.37,-25.27l-91.48 -0.27 -14.23 -0.03 -0.08 25.26 14.23 0.05 91.18 0.26zm286.93 466.74l21.3 -13.53c-0.48,-0.76 -0.99,-1.54 -1.44,-2.3 -57.57,-91.1 -94.1,-179.27 -115.28,-262.75 -8,2.32 -16.08,4.82 -24.18,7.47 20.27,79.45 54.06,162.95 105.94,249.08 4.41,7.32 8.96,14.66 13.65,22.03zm-125.49 -295.77c8.15,-2.64 16.2,-5.12 24.25,-7.42 -12.54,-56.88 -18.04,-111.47 -18.37,-163.07 -0.05,-8.48 0.05,-16.93 0.27,-25.26 1.54,-57.94 9.46,-111.87 21.02,-160.96 -7.98,-2.25 -15.98,-4.66 -24.05,-7.24 -12.19,51.2 -20.57,107.55 -22.18,168.12 -0.2,8.35 -0.3,16.75 -0.25,25.26 0.28,53.96 6.06,111.06 19.31,170.57zm33.36 -381.29c37.91,-141.24 103.8,-237.67 124.24,-265.3 3.71,-5.02 5.93,-7.77 6.18,-8.08l-19 -15.67 -0.48 -0.4c-0.06,0.07 -0.18,0.25 -0.41,0.53 -1.89,2.37 -9.74,12.39 -21.02,29.24 -29.07,43.43 -81.08,132.24 -113.49,252.41 8.05,2.6 16.03,5.02 23.97,7.27zm-63.72 630.91l3.63 -2.3 17.69 -11.26c-2.57,-4.03 -5.07,-8.03 -7.52,-12.03 -33.44,-54.34 -58.62,-107.38 -77.02,-158.61 -7.55,3.74 -15.11,7.6 -22.71,11.64 13.78,37.85 31.19,76.66 52.69,116.21 8.94,16.35 18.52,32.83 28.89,49.47 1.44,2.3 2.87,4.59 4.34,6.89zm-94.28 -196.71c7.62,-4.01 15.29,-7.91 22.86,-11.59 -24.25,-75.33 -34.04,-146.57 -34.27,-212.21 -0.05,-8.53 0.11,-16.93 0.38,-25.26 2.62,-78.81 18.7,-148.91 39.14,-207.59 -7.52,-3.61 -15.11,-7.4 -22.74,-11.31 -21.8,61.63 -39.06,135.57 -41.79,218.82 -0.27,8.31 -0.4,16.76 -0.37,25.27 0.22,69.2 10.7,144.37 36.79,223.87zm36.9 -480.47c40.7,-105.01 92.57,-167.59 93.83,-169.1l-2.95 -2.52 -16.27 -13.83c-0.61,0.7 -12.24,14.71 -28.74,40.13 -19.44,29.88 -45.58,75.55 -68.47,134 7.57,3.94 15.09,7.7 22.61,11.33zm-88.76 539.72c6.36,-4.04 12.67,-7.95 18.98,-11.76 13.84,-8.3 27.61,-16.1 41.24,-23.34 7.6,-4.04 15.16,-7.9 22.71,-11.64 33.92,-16.68 67.08,-30.1 99.48,-40.75 8.11,-2.65 16.18,-5.15 24.18,-7.47 39.04,-11.31 76.79,-18.58 113.05,-22.64 1.64,-8.75 3.56,-17.41 5.81,-25.96 -39.87,3.91 -81.56,11.59 -124.69,24 -8.05,2.3 -16.1,4.77 -24.25,7.42 -33.16,10.8 -67.11,24.41 -101.78,41.31 -7.57,3.68 -15.24,7.58 -22.86,11.59 -15.77,8.28 -31.67,17.23 -47.69,26.94 -5.91,3.56 -11.79,7.22 -17.72,10.98l13.55 21.32zm391.29 -442.47c3.91,0 7.8,-0.02 11.65,-0.1 64.15,-1.11 122.35,-11.33 173.07,-25.54 -1.95,-8.33 -3.99,-16.43 -6.13,-24.48 -48.84,13.73 -104.96,23.57 -166.86,24.68 -3.78,0.08 -7.6,0.1 -11.43,0.1 -4.59,0 -9.19,-0.05 -13.81,-0.15 -52.46,-1.11 -108.71,-8.68 -167.92,-25.49 -7.95,-2.25 -15.92,-4.66 -23.97,-7.27 -31.65,-10.19 -64.07,-23.06 -97.13,-39.01 -7.52,-3.63 -15.04,-7.39 -22.61,-11.33 -15.47,-8.05 -31.09,-16.8 -46.81,-26.27 -6.44,-3.86 -12.87,-7.83 -19.34,-11.94l-13.55 21.3c6.03,3.84 12.06,7.57 18.07,11.21 17.71,10.72 35.3,20.57 52.71,29.55 7.63,3.91 15.22,7.7 22.74,11.31 33.94,16.27 67.2,29.37 99.66,39.79 8.08,2.57 16.08,4.99 24.05,7.24 61.33,17.36 119.64,25.16 174.03,26.28 4.54,0.07 9.09,0.12 13.58,0.12zm208.96 -32.9c38.43,-12.26 71.94,-26.55 99.73,-40.3 -2.83,-8.15 -5.75,-16.1 -8.73,-23.8 -26.85,13.45 -59.53,27.53 -97.19,39.62 2.15,8.03 4.22,16.2 6.19,24.48zm122.32 -52.02c23.9,-12.94 42.09,-24.68 53.8,-32.77 9.74,-6.72 15.04,-10.93 15.44,-11.26l-15.95 -19.58c-0.4,0.33 -5.32,4.24 -14.41,10.49 -10.52,7.27 -26.68,17.69 -47.77,29.28 3.03,7.72 6.01,15.67 8.89,23.84zm27.38 97.9c-7.29,-35.31 -16.8,-68.04 -27.38,-97.9 -2.88,-8.18 -5.86,-16.12 -8.89,-23.84 -23.97,-61.15 -51.5,-108.29 -71.11,-137.99 -15.07,-22.76 -25.47,-35.28 -26.02,-35.96l-14.9 12.64 -4.36 3.71c1.29,1.51 53.22,64.17 93.95,169.36 2.98,7.7 5.9,15.65 8.73,23.8 8.96,25.77 17.09,53.7 23.6,83.63 8.88,0.56 17.66,1.42 26.37,2.55zm-163.48 13.58c8.08,-2.47 16.25,-4.67 24.53,-6.62 -3.07,-18.17 -6.71,-35.78 -10.74,-52.84 -1.97,-8.28 -4.04,-16.45 -6.19,-24.48 -32.61,-121.38 -85.25,-210.84 -114.29,-254.07 -12.29,-18.33 -20.34,-28.32 -20.87,-28.97l-19.51 16.07c0.27,0.3 2.35,2.88 5.88,7.65 20.04,27.05 86.58,124.16 124.61,266.59 2.15,8.05 4.19,16.15 6.13,24.48 3.93,16.83 7.47,34.27 10.44,52.19zm117.4 307.32l-18.12 -8.81c-17.36,-8.43 -32.31,-17.95 -44.47,-28.29 -14.15,-12.19 -21.29,-27.51 -21.29,-45.6 0,-17.81 5.19,-33.11 15.44,-45.44 10.74,-13.05 28.84,-19.97 55.29,-21.1l13.15 -0.58 0 149.83zm-25.24 -122.73c-11.35,1.85 -19.46,5.48 -23.75,10.68 -6.48,7.82 -9.66,17.41 -9.66,29.34 0,10.7 3.99,19.11 12.5,26.43 6.08,5.17 13.09,10.17 20.92,14.92l0 -81.37zm12.87 356.92l0 -159.82 17.97 8.41c17.92,8.4 33.57,17.84 46.48,28.06 15.27,12.16 22.96,27.96 22.96,46.99 0,20.77 -6.33,37.98 -18.85,51.15 -12.26,12.98 -30.61,20.92 -54.53,23.62l-14.04 1.59zm25.24 -119.27l0 90.07c10.85,-2.8 19.23,-7.3 25.01,-13.4 8.05,-8.45 11.94,-19.49 11.94,-33.76 0,-11.26 -4.26,-19.92 -13.42,-27.2 -6.92,-5.48 -14.79,-10.73 -23.52,-15.7zm-17.21 333.88c-213.12,0 -386.49,-173.37 -386.49,-386.49 0,-150.03 85.93,-280.35 211.13,-344.37 9.36,-4.79 18.95,-9.21 28.72,-13.22 30.36,-12.49 62.61,-21.22 96.23,-25.61 8.71,-1.14 17.48,-2 26.37,-2.55 7.95,-0.48 15.98,-0.73 24.05,-0.73 30.44,0 60.09,3.55 88.53,10.24 8.28,1.95 16.45,4.14 24.53,6.62 66.67,20.44 125.77,58.49 171.78,108.69 7.42,8.08 14.49,16.48 21.22,25.18 5.68,7.38 11.13,14.97 16.27,22.74 23.22,35 40.88,74.02 51.73,115.73 2.25,8.55 4.17,17.21 5.81,25.96 4.34,23.14 6.61,46.97 6.61,71.32 0,77.88 -23.14,150.4 -62.91,211.15 -4.61,7.04 -9.46,13.93 -14.51,20.65 -3.2,4.27 -6.46,8.43 -9.84,12.54 -70.91,86.71 -178.72,142.15 -299.22,142.15zm0 -747.72c-199.19,0 -361.25,162.04 -361.25,361.23 0,199.19 162.06,361.23 361.25,361.23 199.19,0 361.23,-162.04 361.23,-361.23 0,-199.19 -162.04,-361.23 -361.23,-361.23zm47.97 675.97l-99.58 0 0 -62.74c-23.07,-1.41 -43.79,-4.26 -61.76,-8.5 -21.8,-5.12 -38.53,-11 -51.15,-17.96l-9.26 -5.1 36.39 -106.6 13.4 8.1c7.72,4.67 18.93,9.29 33.33,13.73 11,3.41 24.08,6.11 39.05,8.03l0 -122.98c-12.32,-5.75 -24.66,-12.06 -37.48,-19.2 -15.21,-8.4 -29.27,-19.01 -41.74,-31.42 -12.57,-12.57 -22.74,-27.72 -30.18,-45 -7.55,-17.36 -11.38,-38.16 -11.38,-61.83 0,-44.26 12.09,-79.31 35.98,-104.17 21.45,-22.36 49.95,-37.68 84.8,-45.57l0 -67.34 99.58 0 0 63.14c17.19,1.69 32.23,4.31 45.7,7.98 16.07,4.31 31.27,9.53 45.23,15.44l10.65 4.51 -33.74 103.42 -12.92 -6.03c-8.05,-3.76 -17.82,-7.37 -29.02,-10.75 -7.8,-2.4 -16.45,-4.44 -25.89,-6.08l0 111.64c12.34,5.8 25.14,12.39 38.14,19.58 15.87,8.84 30.28,19.51 42.77,31.7 12.72,12.49 23.19,27.25 31.17,43.94 8.18,17.29 12.32,37.76 12.32,60.87 0,46.89 -12.27,84.24 -36.49,111.04 -21.86,24.28 -51.41,40.86 -87.9,49.34l0 68.82zm-171.23 -164.11l-19.58 57.33c9.39,3.99 21.22,7.65 35.25,10.98 19.51,4.59 42.75,7.42 69.07,8.4l12.14 0.45 0 61.68 49.08 0 0 -64.32 10.32 -1.92c35.68,-6.59 63.99,-21.25 84.09,-43.59 19.91,-22 30,-53.67 30,-94.1 0,-19.36 -3.34,-36.19 -9.87,-50.04 -6.69,-13.96 -15.47,-26.32 -26.01,-36.72 -10.9,-10.6 -23.47,-19.94 -37.38,-27.69 -15.02,-8.3 -29.73,-15.72 -43.71,-22.03l-7.45 -3.39 0 -156.79 14.18 1.74c16.76,2.1 31.27,5.08 44.34,9.12 6.87,2.07 13.3,4.24 19.23,6.51l17.82 -54.58c-9.84,-3.71 -20.29,-7.07 -31.17,-9.99 -14.71,-3.99 -32.41,-6.72 -52.64,-8.13l-11.76 -0.81 0 -61.3 -49.08 0 0 62.93 -10.4 1.87c-34.25,6.13 -61.65,19.69 -81.41,40.33 -19.21,20.01 -28.95,49.18 -28.95,86.68 0,20.19 3.11,37.6 9.28,51.81 6.21,14.36 14.57,26.87 24.86,37.15 10.8,10.77 22.94,19.91 36.14,27.21 14.79,8.23 28.87,15.31 43.03,21.65l7.45 3.33 0 167.17 -13.76 -1.26c-22.89,-2.07 -41.87,-5.5 -58,-10.52 -9.64,-2.95 -17.97,-6.01 -25.14,-9.16z"/>
 </g>
</svg>
