<?xml version="1.0" encoding="UTF-8"?>
<!DOCTYPE svg PUBLIC "-//W3C//DTD SVG 1.1//EN" "http://www.w3.org/Graphics/SVG/1.1/DTD/svg11.dtd">
<!-- Creator: CorelDRAW 2021 (64-Bit) -->
<svg xmlns="http://www.w3.org/2000/svg" xml:space="preserve" width="49.7492mm" height="29.8215mm" version="1.1" style="shape-rendering:geometricPrecision; text-rendering:geometricPrecision; image-rendering:optimizeQuality; fill-rule:evenodd; clip-rule:evenodd"
viewBox="0 0 1426.82 855.29"
 xmlns:xlink="http://www.w3.org/1999/xlink"
 xmlns:xodm="http://www.corel.com/coreldraw/odm/2003">
 <defs>
  <style type="text/css">
   <![CDATA[
    .fil0 {fill:white;fill-rule:nonzero}
   ]]>
  </style>
 </defs>
 <g id="Слой_x0020_1">
  <metadata id="CorelCorpID_0Corel-Layer"/>
  <path class="fil0" d="M365.55 551.51c-0.41,-2.9 -0.7,-5.89 -0.87,-8.98l-0.46 -8.67 8.11 -3.14c0.15,-0.06 1.05,-0.41 2.64,-1.09 -37.69,-16.43 -89.8,-29.87 -132.68,-39.22l-8.08 22.85c42.77,9.19 95.39,22.47 131.36,38.24zm128.66 -342.05l0.15 -1.02c-5.97,-0.85 -10.45,-6.08 -10.26,-12.24 0.2,-6.36 5.38,-11.64 11.59,-11.66 -48.37,-1.59 -98.7,-11.2 -137.87,-20.72l-8.08 22.88c39.93,9.8 91.81,19.82 142.82,21.76l1.65 1zm175.65 632.34l0.02 0c14.01,-0.03 29.55,-2.53 46.15,-7.06 -0.24,-0.33 -0.46,-0.68 -0.7,-1.02l-13.03 -20.02c-11.62,2.64 -22.49,4.08 -32.44,4.08 -28.96,0 -45.4,-12.53 -51.72,-39.44l-2.21 -9.46 -9.78 0.2 0 0c-13.05,0 -75.53,-3.07 -77.28,-63.33l-0.3 -9.89 -9.78 -1.61c-2.31,-0.39 -57.71,-10.74 -59.66,-76.69l-0.3 -9.87 -9.72 -1.63c-2.2,-0.37 -51.83,-9.56 -59.54,-56.45 26.71,-11.41 109.48,-50.04 192.25,-121.64 -18.41,6.6 -36.08,9.56 -52.03,10.39 -74.01,56.17 -140.88,85.48 -154.83,91.29 -1.59,0.67 -2.48,1.03 -2.64,1.09l-8.11 3.14 0.46 8.67c0.17,3.09 0.46,6.08 0.87,8.98 6.63,46.32 44.21,68.65 70.16,76.08 5.45,54.97 43.49,80.24 69.81,88.15 6.58,56.1 56.73,74.55 91.77,77.06 10.71,32.09 35.67,49 72.57,49zm398.23 -229.38c11.62,-10.59 19.26,-18.41 21.81,-22.2 10.48,-15.74 58.37,-62.31 105.91,-106.95l-12.74 -21.01c-47.94,44.9 -100.77,96.06 -113.13,114.63 -1.85,2.74 -6.65,7.8 -13.88,14.62l7.26 11.15c2.02,3.09 3.61,6.39 4.77,9.76zm-300.25 -402.98c57.8,-7.1 163.93,-20.72 241.37,-33.88l-13.4 -22.09c-72.33,11.76 -172.62,25.1 -248.93,34.33l20.96 21.64zm-247.97 229.16c3.23,0 6.52,-0.09 9.92,-0.27 15.95,-0.83 33.62,-3.79 52.03,-10.39 35.99,-12.88 74.71,-39.67 108.54,-91.68 27,22.79 98.53,77.34 164.89,77.34 24.2,0 47.69,-7.23 68.1,-25.9l9.11 -8.32 -164.63 -169.94 -20.96 -21.64 -14.02 -14.48c-1.64,-0.81 -27.89,-13.43 -68.75,-13.43 -20.72,0 -45.16,3.25 -72.05,12.88 -22.33,8.02 -50.13,11.99 -82.86,11.99 -4.16,0 -8.39,-0.07 -12.72,-0.2l0 0c-0.24,0 -0.5,-0.03 -0.74,-0.03 -0.03,0 -0.03,0 -0.04,0 -6.22,0.03 -11.39,5.3 -11.59,11.66 -0.2,6.16 4.29,11.39 10.26,12.24 0.44,0.07 0.92,0.11 1.38,0.13 4.7,0.15 9.32,0.22 13.85,0.22 35.32,0 65.74,-4.49 90.57,-13.4 23.75,-8.52 45.41,-11.35 63.64,-11.35 29.96,0 50.77,7.63 56.71,10.07l176.85 183.47c-12.96,8.41 -27.43,11.9 -42.51,11.9 -72,0 -157.94,-79.37 -159.03,-80.37l-10.92 -10.22 -7.62 12.88c-50.66,85.73 -113.19,103.67 -156.65,103.67 -29.68,0 -50.46,-8.35 -52.51,-9.2 -0.94,-0.39 -1.9,-0.65 -2.88,-0.8 -0.56,-0.09 -1.15,-0.13 -1.72,-0.13 -4.69,0 -9.18,2.77 -11.12,7.39 -2.54,6.12 0.33,13.15 6.45,15.71 0.59,0.26 25.36,10.22 61,10.22zm482.62 253.04c13.01,0 25.99,-3.98 37.56,-11.54 24.84,-16.24 35.95,-44.69 28.04,-67.67 -1.16,-3.37 -2.74,-6.67 -4.77,-9.76l-7.26 -11.15 -40.76 -62.66c-8.94,-13.69 -24.47,-21.5 -42.62,-21.5 -13.01,0 -26.02,3.98 -37.61,11.55 -15.08,9.87 -25.1,24.2 -28.91,39.08 9.24,4.34 17.23,11.05 23.09,19.61 -3.68,-12.55 3.86,-28.71 18.96,-38.58 7.56,-4.93 16.25,-7.65 24.46,-7.65 9.89,0 18.08,3.88 22.49,10.62l48.02 73.79c8.45,12.99 1.15,32.83 -16.26,44.23 -7.53,4.9 -16.21,7.28 -24.2,7.28 -7.41,0 -14.23,-2.05 -19,-6.03l3.25 4.96c5.02,7.78 7.97,16.36 8.93,25.1 2.16,0.22 4.34,0.34 6.58,0.34zm-244.41 163.65c12.96,0 25.95,-3.97 37.54,-11.5 13.77,-9.02 23.31,-21.81 27.74,-35.36 -8.28,-4.01 -15.53,-9.93 -21.13,-17.39 0.33,11.42 -6.97,24.3 -19.72,32.62 -7.52,4.9 -16.16,7.28 -24.16,7.28 -9.71,0 -18.45,-3.53 -22.88,-10.33l-48.05 -73.77c-4.14,-6.38 -3.83,-13.35 -2.83,-18.06 2.12,-10.02 9.09,-19.52 19.09,-26.04 7.65,-4.99 16.36,-7.73 24.58,-7.73 4.86,0 9.32,0.93 13.12,2.7 -4.73,-8.3 -7.17,-17.37 -7.51,-26.47 -1.84,-0.17 -3.71,-0.26 -5.6,-0.26 -13.03,0 -26.06,4.03 -37.69,11.66 -15.27,9.94 -26.04,24.95 -29.45,41.18 -2.75,12.96 -0.57,25.8 6.21,36.15l34.99 53.75 13.03 20.02c0.24,0.35 0.46,0.7 0.7,1.02 9.07,13.07 24.3,20.54 42.05,20.54zm175.24 -95.14c12.2,0 24.12,-3.58 34.44,-10.31 20.42,-13.31 30.62,-36.38 28.15,-58.54 -0.96,-8.74 -3.9,-17.33 -8.93,-25.1l-3.25 -4.96 -53.71 -82.49c-0.26,-0.39 -0.5,-0.76 -0.77,-1.16 -5.86,-8.56 -13.85,-15.27 -23.09,-19.61 -7.88,-3.72 -16.69,-5.72 -25.86,-5.72 -12.2,0 -24.14,3.57 -34.54,10.3 -17.01,11.15 -26.95,29.06 -28.36,47.56 11.94,4.25 22.24,12.22 29.24,23.01l57.04 87.37c7.14,11.05 10.02,23.7 9.08,36.12 6.45,2.29 13.4,3.53 20.55,3.53zm-53.01 -183.89c12.2,0 23.25,5.82 29.57,15.56l56.95 87.48c10.65,16.43 5.21,39.07 -12.18,50.44 -6.34,4.12 -13.63,6.06 -20.85,6.08 -12.03,0 -23.75,-5.45 -30.11,-15.32l-57.04 -87.37c-10.65,-16.41 -5.14,-39.07 12.29,-50.47 6.42,-4.18 13.84,-6.4 21.38,-6.4zm-30.46 238.2c12.22,0 24.18,-3.6 34.57,-10.37 17.02,-11.13 26.93,-29 28.35,-47.47 0.94,-12.42 -1.94,-25.08 -9.08,-36.12l-57.04 -87.37c-6.99,-10.79 -17.3,-18.76 -29.24,-23.01 -6.47,-2.33 -13.42,-3.55 -20.59,-3.55 -12.18,0 -24.1,3.55 -34.45,10.26 -19.13,12.55 -29.31,33.6 -28.52,54.4 0.34,9.1 2.78,18.17 7.51,26.47 0.57,0.96 1.16,1.92 1.77,2.88l56.93 87.37c0.7,1.04 1.41,2.09 2.16,3.09 5.6,7.45 12.85,13.38 21.13,17.39 8.06,3.92 17.08,6.03 26.49,6.03zm-53.03 -183.89c12.25,0 23.33,5.86 29.68,15.65l57.04 87.37c10.61,16.41 5.14,39.03 -12.25,50.4 -6.36,4.16 -13.72,6.12 -20.98,6.12 -12.01,0 -23.68,-5.41 -30.11,-15.28l-56.93 -87.34c-10.7,-16.43 -5.21,-39.11 12.22,-50.55 6.41,-4.14 13.79,-6.36 21.33,-6.36zm-572.71 -88.76l10.09 -28.55 8.08 -22.85 107.45 -303.72 8.08 -22.88 12.81 -36.23 -47.45 -16.78 -8 22.64 24.8 8.78 -130.51 368.97 -24.79 -8.73 -8 22.63 47.43 16.71zm-57.15 10.76l9.71 -27.48 8 -22.63 130.5 -369.02 8 -22.64 9.7 -27.45 -167.01 -59.06 -165.87 469.24 166.96 59.05zm13.55 -497.63l121.73 43.05 -149.92 423.92 -121.68 -43.01 149.88 -423.96zm1036.7 463.62l43.09 -26.06 -12.46 -20.52 -22.56 13.62 -202.92 -334.64 22.42 -13.57 -12.46 -20.54 -42.97 26.01 6.45 10.61 13.4 22.09 173.87 286.7 12.74 21.01 21.4 35.29zm58.22 -1.14l151.4 -91.79 -258.16 -425.64 -151.45 91.97 15.1 24.88 12.46 20.54 203.06 334.59 12.46 20.52 15.13 24.93zm-114.82 -484.45l233.24 384.57 -110.35 66.89 -233.28 -384.39 110.4 -67.07z"/>
 </g>
</svg>
