<?xml version="1.0" encoding="UTF-8"?>
<!DOCTYPE svg PUBLIC "-//W3C//DTD SVG 1.1//EN" "http://www.w3.org/Graphics/SVG/1.1/DTD/svg11.dtd">
<!-- Creator: CorelDRAW 2021 (64-Bit) -->
<svg xmlns="http://www.w3.org/2000/svg" xml:space="preserve" width="32.9157mm" height="26.1411mm" version="1.1" style="shape-rendering:geometricPrecision; text-rendering:geometricPrecision; image-rendering:optimizeQuality; fill-rule:evenodd; clip-rule:evenodd"
viewBox="0 0 418.27 332.18"
 xmlns:xlink="http://www.w3.org/1999/xlink"
 xmlns:xodm="http://www.corel.com/coreldraw/odm/2003">
 <defs>
  <style type="text/css">
   <![CDATA[
    .fil0 {fill:white;fill-rule:nonzero}
   ]]>
  </style>
 </defs>
 <g id="Слой_x0020_1">
  <metadata id="CorelCorpID_0Corel-Layer"/>
  <path class="fil0" d="M122.68 317.81l72.47 0 0 -35.4c0.89,-0.26 1.78,-0.53 2.65,-0.81l-3.13 -7.16c-1.46,0.45 -2.93,0.88 -4.41,1.27l-2.88 0.78 0 33.55 -56.93 0 0 -33.55 -2.88 -0.78c-10.13,-2.72 -19.9,-6.79 -29.05,-12.09l-2.58 -1.49 -23.8 23.75 -40.24 -40.27 23.76 -23.75 -1.5 -2.59c-5.29,-9.13 -9.36,-18.91 -12.09,-29.05l-0.78 -2.88 -33.56 0 0 -56.93 33.58 0 0.77 -2.88c2.72,-10.13 6.78,-19.88 12.08,-29.01l1.49 -2.58 -23.76 -23.78 40.25 -40.28 23.8 23.81 2.58 -1.5c9.16,-5.29 18.94,-9.36 29.08,-12.07l2.88 -0.78 0 -33.59 56.9 0 0 33.6 2.88 0.77c10.13,2.72 19.9,6.79 29.05,12.07l2.58 1.49 23.76 -23.76 40.24 40.24 -23.73 23.78 0.06 0.14 12.76 -5.58 1.09 2.49 20.78 -20.84 -51.21 -51.21 -25.06 25.07c-8.09,-4.43 -16.62,-7.97 -25.44,-10.57l0 -35.45 -72.43 0 0 35.44c-8.81,2.59 -17.36,6.13 -25.46,10.58l-25.1 -25.11 -51.21 51.26 25.04 25.08c-4.43,8.08 -7.99,16.6 -10.58,25.41l-35.41 0 0 72.47 35.41 0c2.59,8.81 6.15,17.34 10.59,25.45l-25.06 25.04 51.21 51.26 25.09 -25.05c8.11,4.43 16.64,7.99 25.45,10.59l0 35.4zm114.13 -29.7l0.44 -1.13c-5.08,-3.97 -9.73,-8.44 -13.89,-13.31l-0.69 0.3 14.13 14.14zm-77.89 -33.64c8.83,0 17.39,-1.21 25.51,-3.47l-3.14 -7.19c-7.15,1.88 -14.65,2.89 -22.38,2.89 -48.41,0 -87.81,-39.4 -87.81,-87.8 0,-48.37 39.4,-87.73 87.81,-87.73 30.1,0 56.7,15.22 72.52,38.37l7.23 -3.17c-17.11,-25.87 -46.46,-42.97 -79.75,-42.97 -52.7,0 -95.57,42.83 -95.57,95.49 0,52.7 42.87,95.57 95.57,95.57zm120.64 77.72l9.75 -24.8c2.65,0.22 5.31,0.34 7.95,0.34 3.79,0 7.56,-0.23 11.28,-0.66l10.65 24.37 51.24 -22.37 -10.65 -24.38c4.85,-4.14 9.31,-8.78 13.3,-13.86l24.78 9.73 20.41 -52.06 -24.78 -9.73c0.53,-6.46 0.42,-12.91 -0.34,-19.25l24.37 -10.64 -22.36 -51.24 -24.38 10.65c-4.15,-4.88 -8.78,-9.33 -13.85,-13.3l9.66 -24.81 -52 -20.37 -9.71 24.78c-2.63,-0.21 -5.26,-0.32 -7.89,-0.32 -3.8,0 -7.58,0.22 -11.34,0.66l-9.57 -21.91 -1.09 -2.49 -12.76 5.58 -23.55 10.28 -7.23 3.17 -7.67 3.34 10.66 24.4c-4.88,4.14 -9.36,8.79 -13.33,13.89l-24.84 -9.76 -20.38 52.06 24.78 9.74c-0.53,6.41 -0.42,12.85 0.34,19.2l-24.39 10.66 4.69 10.74 3.14 7.19 10.24 23.44 3.13 7.16 1.19 2.71 23.69 -10.35 0.69 -0.3c4.16,4.88 8.81,9.34 13.89,13.31l-0.44 1.13 -9.28 23.65 52.02 20.43zm4.68 -33.13l-9.07 23.07 -37.58 -14.75 9.05 -23.07 -2.41 -1.77c-6.27,-4.6 -11.88,-9.99 -16.71,-16.03l-1.86 -2.32 -22.67 9.9 -16.17 -37 22.69 -9.91 -0.45 -2.94c-1.14,-7.63 -1.27,-15.4 -0.41,-23.12l0.34 -2.95 -23.06 -9.07 14.72 -37.6 23.11 9.08 1.77 -2.41c4.62,-6.29 10.01,-11.91 16.03,-16.7l2.34 -1.86 -9.91 -22.7 36.98 -16.15 9.91 22.7 2.94 -0.44c4.32,-0.66 8.73,-0.98 13.14,-0.98 3.34,0 6.69,0.18 10,0.56l2.96 0.33 9.05 -23.05 37.55 14.72 -9 23.08 2.39 1.77c6.26,4.61 11.86,9.99 16.67,16l1.85 2.33 22.69 -9.89 16.15 36.99 -22.67 9.9 0.45 2.94c1.15,7.58 1.28,15.38 0.41,23.17l-0.33 2.96 23.05 9.04 -14.74 37.6 -23.05 -9.04 -1.78 2.39c-4.62,6.29 -10.02,11.9 -16.01,16.68l-2.33 1.86 9.89 22.7 -37 16.15 -9.9 -22.68 -2.95 0.45c-4.28,0.64 -8.65,0.96 -13.05,0.96 -3.36,0 -6.74,-0.18 -10.1,-0.57l-2.95 -0.33zm12.93 -15.99c9.93,0 19.61,-2.03 28.77,-6.02 17.62,-7.69 31.2,-21.81 38.23,-39.75 7.03,-17.97 6.67,-37.55 -1.02,-55.17 -11.46,-26.25 -37.42,-43.21 -66.14,-43.21 -9.93,0 -19.61,2.03 -28.76,6.03 -17.63,7.68 -31.21,21.81 -38.26,39.74 -7.04,17.94 -6.68,37.52 1.01,55.13 11.48,26.27 37.45,43.25 66.17,43.25zm-0.16 -136.38c25.63,0 48.79,15.13 59.01,38.54 6.87,15.73 7.19,33.22 0.92,49.23 -6.27,16.01 -18.39,28.61 -34.09,35.47 -8.18,3.57 -16.81,5.39 -25.67,5.39 -25.63,0 -48.81,-15.15 -59.04,-38.59 -6.86,-15.71 -7.19,-33.18 -0.91,-49.18 6.29,-16 18.41,-28.6 34.13,-35.47 8.18,-3.57 16.81,-5.38 25.66,-5.38z"/>
 </g>
</svg>
