<?xml version="1.0" encoding="UTF-8"?>
<!DOCTYPE svg PUBLIC "-//W3C//DTD SVG 1.1//EN" "http://www.w3.org/Graphics/SVG/1.1/DTD/svg11.dtd">
<!-- Creator: CorelDRAW 2021 (64-Bit) -->
<svg xmlns="http://www.w3.org/2000/svg" xml:space="preserve" width="44.2636mm" height="47.3471mm" version="1.1" style="shape-rendering:geometricPrecision; text-rendering:geometricPrecision; image-rendering:optimizeQuality; fill-rule:evenodd; clip-rule:evenodd"
viewBox="0 0 7795.47 8338.52"
 xmlns:xlink="http://www.w3.org/1999/xlink"
 xmlns:xodm="http://www.corel.com/coreldraw/odm/2003">
 <defs>
  <style type="text/css">
   <![CDATA[
    .fil0 {fill:white;fill-rule:nonzero}
   ]]>
  </style>
 </defs>
 <g id="Слой_x0020_1">
  <metadata id="CorelCorpID_0Corel-Layer"/>
  <path class="fil0" d="M3897.79 7795.73c45.79,0 82.83,-37.2 82.83,-82.93l0 -2890.52c-23.69,1.74 -47.48,2.54 -71.45,2.54 -31.84,0 -63.3,-1.48 -94.15,-4.4l0 2892.38c0,45.74 37.04,82.93 82.77,82.93zm-82.77 -4941.35c30.86,-2.96 62.31,-4.54 94.15,-4.54 23.97,0 47.76,0.93 71.45,2.54l0 -1711.94 -44.13 44.26c-34.4,34.4 -77.07,55.51 -121.47,63.56l0 1606.13zm165.6 -2490.61l0 -280.83c0,-45.88 -37.04,-82.93 -82.83,-82.93 -45.74,0 -82.77,37.05 -82.77,82.93l0 115.18 33.41 33.46c25.98,26.24 25.98,68.53 0,94.61l-0.12 0.12 13.65 13.49 0 0c13.09,-13.09 30.24,-19.53 47.37,-19.53 17.1,0 34.25,6.57 47.22,19.53l24.07 23.97zm-389.44 598.19c73.69,-8.05 148.36,-13.38 223.84,-15.82l0 -165.78c-14.76,0.42 -29.32,1.11 -43.92,1.64l-179.92 179.95zm-276.8 -74.67l0 -0.12 61.76 -61.69c-11.06,1.88 -22.17,4.02 -33.14,6.02l-42.16 42.13 0 0 13.54 13.67zm20.17 114.63c84.31,-16.98 169.95,-30.33 256.63,-39.96l179.92 -179.95c-134.02,5.99 -265.81,20.71 -394.95,43.47l-61.76 61.69 0 0.12c-12.49,12.43 -19.53,29.43 -19.53,47.22 0,17.82 7.04,34.8 19.53,47.25l20.17 20.17zm-81.08 -108.77c17.68,0 34.82,-6.94 47.37,-19.53l0 0 42.16 -42.13c-49.63,9.37 -98.75,19.8 -147.44,31.59l10.69 10.53c12.45,12.59 29.59,19.53 47.22,19.53zm911.41 62.63c42.13,-45.1 62.61,-102.89 61.66,-160.42 -81.08,-8.42 -163.08,-13.61 -245.91,-15.52l0 165.65c61.94,1.44 123.23,4.93 184.25,10.29zm-349.85 292.47c44.4,-8.05 87.07,-29.16 121.47,-63.56l44.13 -44.26 0 -567.81 -165.6 165.62 0 510.01zm0 -861.34l46.93 -47.11 -13.65 -13.49 -33.29 33.29 0 27.32zm0 351.33l165.6 -165.62 0 -208.85 -24.07 -23.97c-12.96,-12.96 -30.12,-19.53 -47.22,-19.53 -17.14,0 -34.29,6.45 -47.37,19.53l0 0 -46.93 47.11 0 351.33zm0 -378.65l33.29 -33.29 0.12 -0.12c25.98,-26.08 25.98,-68.37 0,-94.61l-33.41 -33.46 0 161.48zm165.6 6535.33c1605.62,-37.05 2909.48,-1317.69 2983.49,-2914.19l-165.78 0c-73.83,1505.15 -1303.34,2711.64 -2817.71,2748.41l0 165.78zm-165.6 -0.65l0 -165.76c-484.49,-15.52 -939.2,-150.79 -1335.64,-377.17 -16.34,53.13 -31.58,107.98 -45.51,164.44 411.93,227.82 881.56,363.36 1381.14,378.49zm-1949.06 -783.06c3.22,-69.71 8.84,-139.94 17.36,-210.86 -502.88,-493.97 -826.52,-1169.7 -863.3,-1919.61l-165.92 0c39.2,844.22 422.09,1599.98 1011.85,2130.48zm-1015.04 -2296.09l165.62 0c10.57,-1388.61 1004.19,-2547.34 2318,-2813.2l-20.17 -20.17c-12.49,-12.45 -19.53,-29.43 -19.53,-47.25 0,-17.79 7.04,-34.78 19.53,-47.22l-13.54 -13.67c-12.56,12.59 -29.69,19.53 -47.37,19.53 -17.63,0 -34.77,-6.94 -47.22,-19.53l-10.69 -10.53c-1336.41,320.53 -2334.47,1520.87 -2344.63,2952.03zm5950.79 0l165.62 0c-11.11,-1569.36 -1210.24,-2861.35 -2740.8,-3019.77 0.95,57.54 -19.53,115.32 -61.66,160.42 1468.46,129.23 2625.57,1360.38 2636.84,2859.34zm-2821.09 2043.9c1034.59,-36.14 1874.12,-852.92 1946.21,-1878.28l-166.15 0c-71.56,933.85 -836.84,1676.52 -1780.06,1712.36l0 165.92zm-165.6 -0.95l0 -165.88c-84.31,-4.28 -167.13,-14.07 -248.08,-29.31l-34.5 162.15c92.14,17.38 186.51,28.64 282.58,33.04zm-298.51 -36.1l-105.55 -195.35c-158.94,-44.29 -309.61,-109.3 -448.34,-191.86 -32.39,40.42 -65.83,84.83 -99.82,133.27 198.16,120.25 418.77,207.48 653.7,253.94zm-1310.59 -894.52c30.5,-52.04 63.56,-103.84 99.13,-155.07 -44.03,-75.06 -82.83,-153.45 -116.01,-234.8l-213.36 -105.02c54.42,176.47 132.31,342.61 230.23,494.88zm-274.79 -665.73l159.88 -44.98c-16.08,-77.05 -27.3,-155.86 -33.44,-235.99l-166.18 0c6.71,95.68 20.22,189.46 39.75,280.97zm-44.68 -446.59l165.78 0c11.59,-982.44 789.57,-1783.81 1762.8,-1832.67l0 -165.88c-1064.58,49.12 -1916.94,924.76 -1928.58,1998.55zm3879.59 0l165.76 0c-11.75,-1081.41 -876.05,-1961.86 -1951.17,-1999.48l0 165.92c983.62,37.32 1773.77,843.5 1785.42,1833.56zm-5683.1 165.62l2847.99 0 1.22 -0.39c-6.83,-46.69 -10.32,-94.47 -10.32,-143.01 0,-7.52 0,-14.86 0.26,-22.23l-2839.14 0c-45.74,0 -82.93,37.05 -82.93,82.83 0,45.74 37.2,82.79 82.93,82.79zm4803.28 0l2826.43 0c45.77,0 82.83,-37.05 82.83,-82.79 0,-45.77 -37.05,-82.83 -82.83,-82.83l-2816.21 0c0.11,7.36 0.26,14.71 0.26,22.23 0,48.7 -3.65,96.58 -10.48,143.39zm-977.05 844.08c23.97,0 47.76,-0.79 71.45,-2.54 463.32,-33.3 839.27,-387.86 905.6,-841.55 6.83,-46.81 10.48,-94.7 10.48,-143.39 0,-7.52 -0.16,-14.86 -0.26,-22.23 -11.39,-510.27 -411.95,-926.49 -915.81,-962.75 -23.69,-1.6 -47.48,-2.54 -71.45,-2.54 -31.84,0 -63.3,1.59 -94.15,4.54 -493.17,46.83 -881.82,458.09 -892.94,960.74 -0.26,7.36 -0.26,14.71 -0.26,22.23 0,48.54 3.49,96.32 10.32,143.01l161.06 -45.24c-3.75,-32.09 -5.76,-64.74 -5.76,-97.76 0,-453.16 368.59,-821.75 821.73,-821.75 453.02,0 821.75,368.59 821.75,821.75 0,453.13 -368.73,821.86 -821.75,821.86 -43.08,0 -85.47,-3.38 -126.82,-9.79l-34.5 162.29c22.19,3.63 44.52,6.55 67.17,8.72 30.86,2.92 62.31,4.4 94.15,4.4zm-1420.03 3513.7l-88.29 -512.28c-87.49,-508.13 -56.32,-945.08 33.02,-1310.45 13.93,-56.46 29.16,-111.3 45.51,-164.44 100.88,-326.31 246.01,-587.59 383.42,-783.32 33.99,-48.43 67.43,-92.85 99.82,-133.27 86.16,-107.98 163.35,-187.16 216.46,-237.49l231.87 429.35 105.55 195.35 11.91 22.07 4.03 -19 34.5 -162.15 180.9 -851.18 34.5 -162.29 205.37 -965.55 -894.52 251.25 -161.06 45.24 -1.22 0.39 -839.93 235.99 -159.88 44.98 -192.55 54.05 237.1 116.8 213.36 105.02 212.61 104.75c-34.13,42.97 -66.22,86.31 -96.6,130.04 -35.58,51.23 -68.63,103.03 -99.13,155.07 -187.16,318.68 -284.06,651.01 -322.59,972.91 -8.52,70.92 -14.14,141.16 -17.36,210.86 -43.61,948.94 373.52,1755.56 380.09,1767.87l243.09 459.43zm739.98 -3397.16l-77.17 59.54c-10.97,8.42 -978.95,773.95 -968.52,2259.53 -191.01,-637.36 -342.23,-1719.44 411.56,-2591.86l70.23 -81.08 -465.45 -229.34 1568.79 -440.67 -308.52 1451.33 -230.92 -427.45z"/>
 </g>
</svg>
