<?xml version="1.0" encoding="UTF-8"?>
<!DOCTYPE svg PUBLIC "-//W3C//DTD SVG 1.1//EN" "http://www.w3.org/Graphics/SVG/1.1/DTD/svg11.dtd">
<!-- Creator: CorelDRAW 2021 (64-Bit) -->
<svg xmlns="http://www.w3.org/2000/svg" xml:space="preserve" width="52.7797mm" height="62.0556mm" version="1.1" style="shape-rendering:geometricPrecision; text-rendering:geometricPrecision; image-rendering:optimizeQuality; fill-rule:evenodd; clip-rule:evenodd"
viewBox="0 0 7847.61 9226.81"
 xmlns:xlink="http://www.w3.org/1999/xlink"
 xmlns:xodm="http://www.corel.com/coreldraw/odm/2003">
 <defs>
  <style type="text/css">
   <![CDATA[
    .fil0 {fill:white;fill-rule:nonzero}
   ]]>
  </style>
 </defs>
 <g id="Слой_x0020_1">
  <metadata id="CorelCorpID_0Corel-Layer"/>
  <path class="fil0" d="M3195.61 2522.94l425.48 0 0 -617.97 192.74 0 -405.47 -532.21 -405.3 532.21 192.55 0 0 617.97zm491.04 131.11l-622.15 0 0 -617.97 -325.71 0 669.55 -879.2 669.83 879.2 -325.96 0 0 617.97 -65.56 0zm3255.75 6572.76l258.77 0 0 -517 -258.77 0 0 517zm0 -775.09l258.77 0 0 -6496.68 -258.77 0 0 6496.68zm-6942.39 258.09l7847.61 0 0 -258.09 -7847.61 0 0 258.09zm5380.49 -548.49l1194.59 0c42.81,0 77.26,-34.55 77.26,-77.26l0 -1664.69c0,-42.7 -34.45,-77.26 -77.26,-77.26l-1120.36 0 0 1741.95c0,42.26 -33.78,76.48 -75.79,77.26 0.54,0 0.98,0 1.56,0zm1117.33 -1664.69l0 1510.16 -1040.07 0 0 -1510.16 1040.07 0zm-2315.41 1664.69l1195.05 0c0.45,0 1.03,0 1.47,0 42,-0.77 75.79,-35 75.79,-77.26l0 -2264.58c0,-42.7 -34.58,-77.26 -77.26,-77.26l-1120.74 0 0 2341.84c0,42.26 -33.77,76.48 -75.79,77.26 0.58,0 1.03,0 1.47,0zm1117.79 -2264.58l0 2110.05 -1040.52 0 0 -2110.05 1040.52 0zm-2315.55 2264.58l1194.81 0c0.45,0 1.03,0 1.47,0 42.02,-0.77 75.79,-35 75.79,-77.26l0 -3393.43c0,-42.67 -34.54,-77.26 -77.26,-77.26l-1120.59 0 0 3470.69c0,42.26 -33.78,76.48 -75.79,77.26 0.57,0 1.03,0 1.56,0zm1117.55 -3393.43l0 3238.9 -1040.3 0 0 -3238.9 1040.3 0zm-2315.41 3393.43l1194.83 0c0.45,0 1.03,0 1.47,0 42,-0.77 75.79,-35 75.79,-77.26l0 -4223.18c0,-42.67 -34.55,-77.26 -77.26,-77.26l-1120.6 0 0 4300.43c0,42.26 -33.65,76.48 -75.79,77.26 0.55,0 1.03,0 1.56,0zm1117.55 -4223.18l0 4068.65 -1040.28 0 0 -4068.65 1040.28 0zm-2315.4 4223.18l1194.81 0c0.45,0 1.03,0 1.47,0 42.14,-0.77 75.79,-35 75.79,-77.26l0 -5318c0,-42.84 -34.58,-77.26 -77.26,-77.26l-1194.81 0c-42.69,0 -77.26,34.42 -77.26,77.26l0 5318c0,42.7 34.57,77.26 77.26,77.26zm1117.55 -5318l0 5163.47 -1040.3 0 0 -5163.47 1040.3 0zm4290.05 3343.39l228.6 -159.61 -675.01 -966.65 -618.88 0 -633.31 -1202.47 -640.9 0 -630.37 -919.77 -623.84 0 -614.01 -1122.3 -114.65 -123.81 -204.67 189.41 102.65 110.95 664.63 1224.71 643.05 0 630.15 919.55 619.65 0 633.43 1202.74 641.58 0 591.89 847.26zm-4830.75 -4024.14l303.72 -281.06 204.67 -189.41 308.14 -285.31 -1062.54 -329.25 246.02 1085.04zm4358.18 2335.34l584.99 0 0 -794.49 266.5 0 -559 -733.77 -559.16 733.77 266.67 0 0 794.49zm650.55 131.11l-781.66 0 0 -794.49 -399.95 0 823.56 -1080.71 823.33 1080.71 -399.73 0 0 794.49 -65.56 0zm-1348.58 -3511.53l321.03 0 0 -501.85 143.94 0 -304.51 -399.77 -304.52 399.77 144.06 0 0 501.85zm386.58 131.11l-517.7 0 0 -501.85 -277.28 0 568.86 -746.75 568.81 746.75 -277.14 0 0 501.85 -65.56 0z"/>
 </g>
</svg>
